<svg xmlns="http://www.w3.org/2000/svg" viewBox="0 0 104.23 124.17"><defs><style>.cls-1{fill:#1d1d1b;}.cls-2{fill:#e52d12;}.cls-3{font-size:72px;fill:#fff;font-family:CeraPro-Bold, Cera Pro;font-weight:700;}.cls-4{fill:#c72919;}</style></defs><g id="Layer_2" data-name="Layer 2"><g id="Layer_1-2" data-name="Layer 1"><path class="cls-1" d="M84.85,32.79A24.38,24.38,0,0,0,76.39,15.7a22.71,22.71,0,0,0-16.6-5.63c-11.34,1-20.38,10.71-21,22.69l-10-.54C29.69,15.29,42.66,1.49,59,.11a32.76,32.76,0,0,1,24,8,34.31,34.31,0,0,1,11.9,24Z"/><rect class="cls-1" x="19.38" y="26.87" width="84.85" height="91.3"/><path class="cls-1" d="M0,32.87l16-5.2q40.91,68.19,37.6,70.4T0,32.87Z"/><path class="cls-2" d="M65.47,35.79A24.38,24.38,0,0,0,57,18.7a22.71,22.71,0,0,0-16.6-5.63C29.07,14,20,23.78,19.38,35.76l-10-.54C10.31,18.29,23.28,4.49,39.57,3.11a32.79,32.79,0,0,1,24,8,34.31,34.31,0,0,1,11.9,24Z"/><rect class="cls-2" y="32.87" width="84.85" height="91.3"/><text class="cls-3" transform="translate(15.7 103.31)">ะก</text><path class="cls-4" d="M104.23,26.87l-19.38,6v91.3l19.38-6Z"/></g></g></svg>