<svg xmlns="http://www.w3.org/2000/svg" viewBox="0 0 409.4 101.56"><defs><style>.cls-1{font-size:72px;font-family:CeraPro-Bold, Cera Pro;font-weight:700;}.cls-1,.cls-8{fill:#e52d12;}.cls-2{letter-spacing:-0.01em;}.cls-3{letter-spacing:-0.01em;}.cls-4{letter-spacing:0em;}.cls-5,.cls-6,.cls-7{fill:#fff;}.cls-5,.cls-6{font-family:CeraPro-Regular, Cera Pro;font-weight:400;}.cls-6{letter-spacing:-0.02em;}.cls-9{fill:#c72919;}</style></defs><g id="Layer_2" data-name="Layer 2"><g id="Layer_1-2" data-name="Layer 1"><text class="cls-1" transform="translate(87.99 83.85)"><tspan class="cls-2">С</tspan><tspan class="cls-3" x="51.12" y="0">о</tspan><tspan class="cls-4" x="94.25" y="0">та</tspan><tspan class="cls-5" x="167.11" y="0">г</tspan><tspan class="cls-6" x="198.43" y="0">р</tspan><tspan class="cls-5" x="242.42" y="0">уп</tspan></text><path class="cls-7" d="M0,23.32l11.34-3.69Q40.37,68,38,69.58T0,23.32Z"/><path class="cls-7" d="M60.2,23.27a17.3,17.3,0,0,0-6-12.13,16.07,16.07,0,0,0-11.78-4C34.37,7.83,28,14.75,27.5,23.24l-7.08-.38c.64-12,9.85-21.81,21.41-22.78a23.25,23.25,0,0,1,17,5.69,24.36,24.36,0,0,1,8.45,17.07Z"/><rect  class="cls-7" x="13.75" y="19.07" width="60.2" height="64.78"/><path class="cls-8" d="M46.45,25.4a17.3,17.3,0,0,0-6-12.13,16.12,16.12,0,0,0-11.78-4c-8,.69-14.46,7.61-14.92,16.1L6.67,25C7.31,13,16.51,3.18,28.07,2.2a23.27,23.27,0,0,1,17,5.7A24.29,24.29,0,0,1,53.53,25Z"/><rect class="cls-8" y="23.32" width="60.2" height="64.78"/><path class="cls-7" d="M13.08,56.45A16.35,16.35,0,0,1,18.34,44a17.15,17.15,0,0,1,12.72-5,17.22,17.22,0,0,1,8.71,2.23,16.17,16.17,0,0,1,6.16,6.15L40.72,51q-3.63-5.67-9.66-5.67a10.44,10.44,0,0,0-7.79,3.17,11,11,0,0,0-3.09,8,10.75,10.75,0,0,0,3.09,7.91,10.51,10.51,0,0,0,7.79,3.12q6,0,9.66-5.67l5.21,3.68a15.82,15.82,0,0,1-6.13,6.15A17.46,17.46,0,0,1,31,73.92a17.09,17.09,0,0,1-12.74-5A16.2,16.2,0,0,1,13.08,56.45Z"/><path fill="#fff" class="cls-9" d="M74,19.07,60.2,23.32V88.1L74,83.85Z"/></g></g></svg>